# xmcd
#
# Track frame offsets:
#	151
#	22257
#	99902
#	128727
#	148920
#	181129
#	236580
#
# Disc length: 3551 seconds
#
# Revision: 1
# Processed by: cddbd v1.5.2PL0 Copyright (c) Steve Scherf et al.
# Submitted via: CDmax 2.0
#
DISCID=5b0ddd07
DTITLE=Eric Clapton - I Heard You Say (disc2)
DYEAR=2006
DGENRE=Blues
TTITLE0=After Midnight
TTITLE1=Little Queen of Spades
TTITLE2=Anuday
TTITLE3=Wonderful Tonight
TTITLE4=Layla
TTITLE5=Cocaine
TTITLE6=Crossroads
EXTD=Eric Clapton\tguitar, vocals\nDoyle Bramhall II\tguitar, vocals\nDerek T
EXTD=rucks\tguitar\nChris Stainton\tkeyboards\nTim Carmon\tkeyboards\nWilli
EXTD=e Weeks\tbass\nSteve Jordan\tdrums\nMichelle John\tbacking vocals\nSharo
EXTD=n White\tbacking vocals\n\nRecorded live at Budokan, Tokyo, Japan on Dec
EXTD=ember 5th, 2006
EXTT0=
EXTT1=
EXTT2=
EXTT3=
EXTT4=
EXTT5=
EXTT6=encore
PLAYORDER=
